<svg width="24" height="24" viewBox="0 0 24 24" fill="none" xmlns="http://www.w3.org/2000/svg">
<path fill-rule="evenodd" clip-rule="evenodd" d="M9.47175 2.92629C9.8712 1.90701 10.8629 1.18994 12.02 1.18994C13.1772 1.18994 14.1689 1.90701 14.5683 2.92629C14.6394 3.10762 14.636 3.30574 14.5657 3.48034C16.6022 4.44245 18.02 6.51871 18.02 8.91003V11.8C18.02 12.41 18.28 13.34 18.58 13.86L19.73 15.77C20.39 16.87 19.86 18.3 18.65 18.7C17.6976 19.0182 16.7287 19.2661 15.7504 19.4437C15.5571 21.3291 13.9548 22.8101 12.02 22.8101C10.9925 22.8101 10.0442 22.3849 9.36969 21.7104C8.78049 21.1212 8.38152 20.323 8.29006 19.4456C7.30825 19.2679 6.33575 19.0194 5.37997 18.7C4.07997 18.26 3.58997 16.95 4.29997 15.77L5.44997 13.86C5.75997 13.34 6.01997 12.41 6.01997 11.8V8.91003C6.01997 6.5102 7.434 4.43627 9.47315 3.47718C9.40403 3.30334 9.40112 3.10653 9.47175 2.92629ZM9.85499 19.6682C9.96159 20.0436 10.1633 20.3827 10.4303 20.6497C10.8359 21.0553 11.4075 21.3101 12.02 21.3101C13.0458 21.3101 13.9189 20.6113 14.186 19.667C12.7462 19.8173 11.2949 19.8177 9.85499 19.6682Z" fill="#DFDFEC" fill-opacity="0.3"/>
</svg>
